<svg id="Isolation_Mode" data-name="Isolation Mode" xmlns="http://www.w3.org/2000/svg" viewBox="0 0 116.59 116.28"><defs><style>.cls-1{fill:#f47b20;}.cls-2{font-size:62.26px;fill:#fff;font-family:Milton-Bold, Milton;font-weight:700;}.cls-3{letter-spacing:0.01em;}</style></defs><title>new</title><path class="cls-1" d="M83.64,129.65c-1.72,0-2.66,2.22-4.35,2.09s-2.32-2.46-4-2.71-3,1.8-4.62,1.42-1.92-2.78-3.55-3.28-3.19,1.34-4.78.71-1.48-3-3-3.77-3.35.84-4.83,0-1-3.22-2.42-4.18-3.44.33-4.78-.74-.51-3.33-1.77-4.49-3.45-.18-4.61-1.43,0-3.38-1.09-4.71-3.38-.69-4.35-2.1.49-3.34-.37-4.82-3.25-1.18-4-2.73,1-3.22.35-4.82-3-1.65-3.54-3.29,1.45-3,1.07-4.71S26.24,84,26,82.29s1.89-2.78,1.76-4.5-2.4-2.46-2.4-4.19,2.28-2.49,2.4-4.19-2-2.81-1.76-4.5,2.62-2.12,3-3.78S27.42,58,27.92,56.42s2.92-1.71,3.54-3.3-1.09-3.28-.35-4.82,3.13-1.24,4-2.72-.59-3.41.37-4.82,3.29-.76,4.35-2.1-.07-3.45,1.09-4.71,3.36-.27,4.61-1.43S46,29.09,47.29,28s3.37.24,4.78-.73S53,24,54.49,23.11s3.29.73,4.83,0,1.42-3.15,3-3.78,3.14,1.22,4.78.72,1.87-2.9,3.55-3.28,2.91,1.67,4.62,1.42,2.28-2.59,4-2.71,2.63,2.09,4.35,2.09,2.67-2.22,4.36-2.09,2.32,2.46,4,2.71,3-1.8,4.62-1.42,1.92,2.77,3.55,3.28,3.19-1.34,4.78-.72,1.48,3,3,3.78,3.35-.85,4.83,0,1,3.22,2.42,4.18S118.66,27,120,28s.52,3.34,1.77,4.5,3.45.18,4.62,1.43,0,3.37,1.08,4.71,3.39.69,4.36,2.1-.49,3.34.37,4.82,3.24,1.18,4,2.72-1,3.23-.35,4.82,3,1.66,3.53,3.3-1.45,3-1.07,4.71,2.75,2.08,3,3.78-1.89,2.79-1.77,4.5,2.41,2.47,2.41,4.19-2.28,2.5-2.41,4.19,2,2.82,1.77,4.5-2.63,2.13-3,3.79,1.58,3.08,1.07,4.71-2.91,1.71-3.53,3.29,1.09,3.29.35,4.82-3.14,1.25-4,2.73.59,3.41-.37,4.82-3.29.76-4.36,2.1.08,3.45-1.08,4.71-3.36.26-4.62,1.43-.43,3.42-1.77,4.49-3.36-.23-4.77.74-.94,3.32-2.42,4.18-3.29-.73-4.83,0-1.42,3.15-3,3.77-3.14-1.21-4.78-.71-1.87,2.9-3.55,3.28S93.7,128.78,92,129s-2.28,2.58-4,2.71-2.63-2.09-4.36-2.09" transform="translate(-25.35 -15.46)"/><text class="cls-2" transform="translate(21.34 82.07)">N<tspan class="cls-3" x="26.15" y="0">E</tspan><tspan x="42.96" y="0">W</tspan></text></svg>