<?xml version="1.0" encoding="utf-8"?>
<!-- Generator: Adobe Illustrator 23.1.1, SVG Export Plug-In . SVG Version: 6.00 Build 0)  -->
<svg version="1.1" id="Isolation_Mode" xmlns="http://www.w3.org/2000/svg" xmlns:xlink="http://www.w3.org/1999/xlink" x="0px"
	 y="0px" viewBox="0 0 116.6 116.3" style="enable-background:new 0 0 116.6 116.3;" xml:space="preserve">
<style type="text/css">
	.st0{fill:#F47B20;}
	.st1{enable-background:new    ;}
	.st2{fill:#FFFFFF;}
</style>
<title>new</title>
<path class="st0" d="M58.3,114.2c-1.7,0-2.7,2.2-4.3,2.1s-2.3-2.5-4-2.7s-3,1.8-4.6,1.4s-1.9-2.8-3.6-3.3s-3.2,1.3-4.8,0.7
	c-1.6-0.6-1.5-3-3-3.8c-1.5-0.8-3.4,0.8-4.8,0s-1-3.2-2.4-4.2s-3.4,0.3-4.8-0.7s-0.5-3.3-1.8-4.5s-3.5-0.2-4.6-1.4s0-3.4-1.1-4.7
	s-3.4-0.7-4.3-2.1s0.5-3.3-0.4-4.8s-3.2-1.2-4-2.7s1-3.2,0.4-4.8s-3-1.7-3.5-3.3s1.5-3,1.1-4.7s-2.8-2.1-3-3.8s1.9-2.8,1.8-4.5
	S0,59.9,0,58.1s2.3-2.5,2.4-4.2s-2-2.8-1.8-4.5s2.6-2.1,3-3.8S2.1,42.5,2.6,41s2.9-1.7,3.5-3.3S5,34.4,5.8,32.8s3.1-1.2,4-2.7
	s-0.6-3.4,0.4-4.8s3.3-0.8,4.3-2.1s-0.1-3.5,1.1-4.7s3.4-0.3,4.6-1.4s0.5-3.4,1.8-4.5s3.4,0.2,4.8-0.7s0.9-3.3,2.4-4.2
	s3.3,0.7,4.8,0c1.5-0.7,1.4-3.1,3-3.8s3.1,1.2,4.8,0.7s1.9-2.9,3.6-3.3s2.9,1.7,4.6,1.4s2.3-2.6,4-2.7s2.6,2.1,4.3,2.1
	s2.7-2.2,4.4-2.1s2.3,2.5,4,2.7s3-1.8,4.6-1.4s1.9,2.8,3.6,3.3s3.2-1.3,4.8-0.7s1.5,3,3,3.8s3.3-0.9,4.8,0s1,3.2,2.4,4.2
	s3.5-0.3,4.8,0.7s0.5,3.3,1.8,4.5s3.4,0.2,4.6,1.4s0,3.4,1.1,4.7s3.4,0.7,4.4,2.1s-0.5,3.3,0.4,4.8s3.2,1.2,4,2.7s-1,3.2-0.4,4.8
	s3,1.7,3.5,3.3s-1.4,3-1.1,4.7s2.8,2.1,3,3.8s-1.9,2.8-1.8,4.5s2.4,2.5,2.4,4.2s-2.3,2.5-2.4,4.2s2,2.8,1.8,4.5s-2.6,2.1-3,3.8
	s1.6,3.1,1.1,4.7s-2.9,1.7-3.5,3.3s1.1,3.3,0.4,4.8s-3.1,1.2-4,2.7s0.6,3.4-0.4,4.8s-3.3,0.8-4.4,2.1s0.1,3.4-1.1,4.7
	s-3.4,0.3-4.6,1.4s-0.4,3.4-1.8,4.5s-3.4-0.2-4.8,0.7s-0.9,3.3-2.4,4.2s-3.3-0.7-4.8,0s-1.4,3.2-3,3.8c-1.6,0.6-3.1-1.2-4.8-0.7
	s-1.9,2.9-3.6,3.3s-3-1.6-4.7-1.4s-2.3,2.6-4,2.7S60,114.2,58.3,114.2"/>
<g class="st1">
	<path class="st2" d="M17.3,72.4v-29H23l11.9,19.3V43.4h5.4v29h-5.9L22.7,53.5v18.9H17.3z"/>
</g>
<g class="st1">
	<path class="st2" d="M43.1,72.4v-29h21.5v4.9H48.9v6.4h14.5v4.9H48.9v7.9h16.2v4.9H43.1z"/>
</g>
<g class="st1">
	<path class="st2" d="M73.4,72.4l-6.9-29h6l4.4,19.9l5.3-19.9h7l5.1,20.2l4.4-20.2h5.9l-7,29h-6.2l-5.8-21.7l-5.7,21.7H73.4z"/>
</g>
</svg>
