<svg id="Layer_1" data-name="Layer 1" xmlns="http://www.w3.org/2000/svg" viewBox="0 0 499.57 291.66"><defs><style>.cls-1{fill:#fff;}</style></defs><title>swoh_logo</title><path class="cls-1" d="M240.41,412.52c0-3.18,0-50.28,0-53.47h20.37V335.1H240.4V295.31h21.9V271.15H212l0,165.36h52v-24Z" transform="translate(-131.32 -147.64)"/><path class="cls-1" d="M608.42,271.11s-6.29,45.67-8.43,61.24c-2.26-15.56-8.87-61.24-8.87-61.24H562.79l19.91,113.4,0,52,28.39,0V384.16l19.47-111,.38-2.05H608.42Z" transform="translate(-131.32 -147.64)"/><path class="cls-1" d="M197.2,271.15l-26,0s0,59.78,0,63.08l-11.86,0v-63.1h-28l.06,165.35h28s0-75.2,0-78.54h11.85v78.53H199l0-165.36Z" transform="translate(-131.32 -147.64)"/><path class="cls-1" d="M338.41,406.94v-39.2c0-9.4-4.08-16.51-11.46-21.05,7.75-4.33,12-12.18,12-23.3V298.88c0-16.85-9.52-27.73-24.21-27.73H273.13l0,165.36h27.16s0-74.55,0-77.88h4.54c1.6,0,6.48,0,6.48,7.5v50.32c0,6.28.38,13.47,3.14,19.07l.49,1h34.4S338.41,431.34,338.41,406.94Zm-25.61-76.7c0,6.35-5.51,7-7.88,7h-3.31V295.93h3.08c5.37,0,8.11,2.23,8.11,6.62Z" transform="translate(-131.32 -147.64)"/><path class="cls-1" d="M534.6,412.47c0-3.17,0-50.26,0-53.44H555v-24H534.59v-39.8h21.15V271.11H506.15V436.47h52l0-24Z" transform="translate(-131.32 -147.64)"/><path class="cls-1" d="M491.38,271.12h-26s0,59.78,0,63.09H453.5c0-3.3,0-63.1,0-63.1h-28l.07,165.35h27.94s0-75.18,0-78.52h11.86v78.52h27.8l0-165.35Z" transform="translate(-131.32 -147.64)"/><path class="cls-1" d="M391.21,338.83l-6.79-7.7c-4.87-5.78-7.18-10.22-7.18-19.84V299.1a5,5,0,0,1,5.26-5.41c3.17,0,5.07,2,5.07,5.41v24.38H413.9V298.63C413.9,279,403.26,269,382.29,269S350,279.72,350,299.28v16c0,13.29,3.15,20.4,9,28.89a138.69,138.69,0,0,0,13.42,15.86l9.38,10.68c3.49,4.63,5.81,8.15,5.81,14.57V410c0,2.79-2.38,4.81-5.67,4.81s-5.67-2.19-5.67-5.46V377.51H348.9v33.07c0,17.71,12.47,28.72,32.54,28.72,16.1,0,33.44-8.91,33.44-28.43V384.16c0-9.77-1.22-16.52-7.81-26.21C403,352,396.74,345,391.21,338.83Z" transform="translate(-131.32 -147.64)"/><path class="cls-1" d="M330.79,158.28c0-5.47-3.59-10.64-11-10.64-8.4,0-13.89,6.69-13.89,17.86a83.28,83.28,0,0,0,1.53,13.76c-9.54,9-20.61,19.15-25.95,24.4a15,15,0,0,1-1.91-7.38c0-9.35,8.09-15.88,17.32-11.85l2.83-7c-12.44-6.38-28.46,2.28-28.46,19a22.13,22.13,0,0,0,4.42,13.69c-5.19,6.84-7.17,13.68-6.1,20H276c-1.07-6.15.76-10.94,4.42-15.5a24.64,24.64,0,0,0,14.35,4.33c13.73,0,23.58-9.65,23.58-24.24a95.55,95.55,0,0,0-1.76-15.05C323.92,172.57,330.79,165.88,330.79,158.28Zm-36.4,52.52a14.85,14.85,0,0,1-8.17-2.43c7.25-6.84,15-14.06,22.59-21.36a61.43,61.43,0,0,1,.76,7.52C309.57,204.26,303.24,210.8,294.39,210.8Zm20.83-39.07a50.11,50.11,0,0,1-.61-7c0-5.24,2.13-9.35,5.57-9.35,2.21,0,3.28,1.75,3.28,3.88C323.46,162.92,320.56,166.49,315.22,171.73Zm159.3,19.69c-5.41,9.19-11.37,15.81-15.56,15.81-1.76,0-3.51-1.07,0-9.73L469,172.65h6.48l2-4.79H471l4.12-10.26h-9.38l-4.12,10.26h-6.79l-2,4.79h6.79l-7.78,19.27c-5.62,9.36-13.48,15.31-20.9,15.31-9.69,0-6-10.34-6-10.34,11.22,1.37,17.63-1.44,21.29-9.27,4.58-9.73-.38-16-8.24-16-10.56,0-18.06,10.65-21.09,20.44-5.62,9.26-13.42,15.13-20.79,15.13-9.7,0-6-10.34-6-10.34,11.22,1.37,17.63-1.44,21.29-9.27,4.58-9.73-.38-16-8.24-16-10.56,0-18.06,10.65-21.09,20.44-4.5,7.27-9.94,9.37-14.31,7.6,4.35-6.61,8.17-16,10.76-28l-7.63,1a85,85,0,0,1-7,20.29,5.18,5.18,0,0,0-5.26,8.13c-3.06,3.73-5.5,5.25-7.48,5.25-1.3,0-2.83-.69.46-8.82l10.07-24.85h-9.39l-8.16,20.29c-3.51,6.46-8.17,13.38-12.29,13.38-.91,0-2.67-.38.69-8.82l10.07-24.85H333.3l-8.93,22.11c-5.65,13.76-1.3,18.32,4.88,18.32,4.5,0,8.32-2.89,11.68-6.76.45,4.78,3.74,6.76,8,6.76,5,0,10.45-2.81,15.49-8.82,6.16,2.39,11.74.73,16.25-3.31,0,7.81,4.51,12.13,13.2,12.13,9.26,0,16.4-5,21.62-11.2.36,7.22,4.83,11.2,13.17,11.2,8.08,0,14.54-3.82,19.53-8.89-.5,6.43,2.92,8.89,7.86,8.89,8.77,0,16.33-9,22.05-19.08A4.87,4.87,0,0,0,474.52,191.42Zm-37-12.16c2.59,0,2.67,2.13.84,6.15s-4.58,7.68-11.75,6.46C426.61,191.87,431.19,179.26,437.52,179.26Zm-34.79,0c2.59,0,2.67,2.13.84,6.15s-4.58,7.68-11.75,6.46C391.82,191.87,396.39,179.26,402.73,179.26Z" transform="translate(-131.32 -147.64)"/><path class="cls-1" d="M350.72,224.63l1-4.18c-6.78-1.33-10.31,1.47-12.27,6.22l-8,19.68c-2.29,5.08-5.73,9.6-8.5,9.6-1.19,0-2.34-.72-.09-6.23l10.26-25.33H327.2l-9,22.05c-2.43,5.47-5.87,9.51-8.45,9.51-1,0-2.33-.72-.09-6.23,0,0,.71-1.95,8.59-21.29,1.57-3.85,4.1-4.75,4.1-4.75l-1.05-3.38c-2.86,0-5.34,1.81-7,4.09-8.3,3.33-20.8,5.51-20.8,15-.05,4.56,3.34,8.31,8.59,8.31v-4.8a3.56,3.56,0,0,1-3.68-3.7c0-5.09,7.88-7,13.22-9L304.87,247c-4,9.84-1.24,13.69,3.63,13.69,3.34,0,6.48-2.09,8.63-4.32.19,2.28,1.77,4.32,5.39,4.32,7.73,0,12.36-8.17,15-14.64l7.15-17.72C346.38,224.2,348.19,224.39,350.72,224.63ZM425,246c-3.34,5.6-6.92,9.88-9.16,9.88-1,0-1.91-.85.24-6.08l10.11-25h-5.86l-5.16,12.64a5.09,5.09,0,0,0-5-3.85c-5.58,0-9.42,6.76-11.37,12.78-3.22,5.4-6.72,9.46-8.9,9.46-1,0-1.87-.85.23-6.08l10.12-25h-5.87l-8.69,21.48c-3.7,6.24-6.18,9.55-7.82,9.55-.71,0-1.9-.71.29-6.08l1.91-4.66a6.55,6.55,0,0,0,.57-2.42c0-3.19-4.48-5.47-6.39-7.27l1.72-4.09-2.77-1.76c-2,.62-4.34,3-4.34,5.23a4.39,4.39,0,0,0,1.48,3c-1.39,3-2.82,6-4.06,8.18h0c-2.43,4-5.15,5.7-7.63,5.51A24.57,24.57,0,0,0,361.45,241c0-4.89-2.86-7.41-7.16-7.41-9.16,0-14,12.17-14,18.39,0,4.9,2.91,7.51,7.21,7.51,3.77,0,6.82-2.09,9.11-5,4.82.95,9.07-2.14,11.84-6.94h0c1.48-2.61,2.82-5.27,4.06-8,1.43,1.19,2.43,2,2.43,3a4.72,4.72,0,0,1-.43,1.62l-1.72,4.13c-3.38,8.27-.57,11.17,3.2,11.17,2.74,0,5.1-1.85,7.31-4.62.07,3.34,2.11,4.62,4.76,4.62,3.35,0,6.42-2.41,9.22-6,0,.12,0,.24,0,.35,0,3.09,1.62,5.61,4.86,5.61,4,0,7-3.85,7-3.85s.24,3.85,4.77,3.85c5.2,0,9.64-5.51,13.31-11.93A3,3,0,0,0,425,246Zm-70.51.9a3.24,3.24,0,0,0-3.58,3.23,3.33,3.33,0,0,0,.95,2.28c-1.28,1.9-2.72,3.23-4.1,3.23s-2-1-2-2.75c0-4.14,4.39-15.35,8.44-15.35,1.05,0,1.91.76,1.91,2.71A20.78,20.78,0,0,1,354.44,246.87Zm55.34,3.8s-2.53,4.09-5.3,4.09c-1,0-1.53-.62-1.53-1.9,0-3.52,4-14.36,8.21-14.36,2.29,0,2.29,3.14,2.29,3.14Z" transform="translate(-131.32 -147.64)"/><path class="cls-1" d="M457.4,234.28c-2.14,3.74-4.59,5.43-7.87,5.43a4,4,0,0,1-2.7-1l.65-1.61c3.88-.12,5.08-1.51,6.67-4.41a53,53,0,0,0,3.93-9.17c.93-3.12-.06-5.47-2.82-5.47-2.51,0-4.52,1.55-6.42,6.33l-4.1,10.14c-1.54,2.43-3.23,3.44-4.79,3.32a15.9,15.9,0,0,0,1.86-6.79c0-3.18-1.86-4.82-4.65-4.82-6,0-9.08,7.91-9.08,11.95,0,3.18,1.89,4.88,4.68,4.88a7.59,7.59,0,0,0,5.92-3.24,5.87,5.87,0,0,0,4.24-.8l-3.06,7.56c-1.62,4-.16,5.77,2.29,5.77,2.14,0,3.56-1.39,4.65-3.24a18.29,18.29,0,0,0,2-5.8,7.45,7.45,0,0,0,.07-1.8c4.65.25,7.81-2.31,10-6.2A2,2,0,0,0,457.4,234.28Zm-5.11-8.95c.86-2.13,1.92-4.26,3.09-4.26.72,0,.5,1.2.25,2.07a52.64,52.64,0,0,1-3.9,8.92c-1.12,2-1.92,2.93-3.47,3.15Zm-15,9.54a2.1,2.1,0,0,0-2.32,2.1,2.17,2.17,0,0,0,.62,1.48c-.84,1.23-1.77,2.1-2.67,2.1s-1.3-.68-1.3-1.79c0-2.69,2.85-10,5.49-10,.68,0,1.24.49,1.24,1.75A13.3,13.3,0,0,1,437.25,234.87Zm9.52,8.3c-.44,2-2,6.92-3.81,6.76-.31,0-.53-.28,0-1.6l3.1-7.63C446.71,240.92,447.11,241.53,446.77,243.17Z" transform="translate(-131.32 -147.64)"/></svg>